# xmcd
#
# Track frame offsets: 
#        150
#        23945
#        49267
#        61276
#        81143
#        99533
#        126018
#        144178
#        170433
#        194117
#        224907
#        243520
#        258370
#        274552
#        290344
#
# Disc length: 4180 seconds
#
# Revision: 0
# Processed by: cddbd v1.5.1PL2 Copyright (c) Steve Scherf et al.
# Submitted via: ExactAudioCopy v0.95a4
#
DISCID=e410520f
DTITLE=Tom Waits - Don Hyde Benefit - 2-4-96 - Disc 2
DYEAR=1996
DGENRE=Blues
TTITLE0=In the Colosseum
TTITLE1=Innocent When You Dream
TTITLE2=Cemetary Polka
TTITLE3=Falling Down
TTITLE4=That Feel
TTITLE5=Singapore
TTITLE6=Heartattack and Vine
TTITLE7=Filipino Box Spring Hog
TTITLE8=Big Joe and Phantom 309
TTITLE9=Gun Street Girl
TTITLE10=Time
TTITLE11=Lucky Day
TTITLE12=Walk Away
TTITLE13=Fall of Troy
TTITLE14=Tom Traubert's Blues
EXTD=
EXTT0=
EXTT1=
EXTT2=
EXTT3=
EXTT4=
EXTT5=
EXTT6=
EXTT7=
EXTT8=
EXTT9=
EXTT10=
EXTT11=
EXTT12=
EXTT13=
EXTT14=
PLAYORDER=
